<?xml version="1.0" encoding="UTF-8" standalone="no"?>
<!-- Created with Inkscape (http://www.inkscape.org/) -->

<svg
   xmlns:dc="http://purl.org/dc/elements/1.1/"
   xmlns:cc="http://creativecommons.org/ns#"
   xmlns:rdf="http://www.w3.org/1999/02/22-rdf-syntax-ns#"
   xmlns:svg="http://www.w3.org/2000/svg"
   xmlns="http://www.w3.org/2000/svg"
   xmlns:xlink="http://www.w3.org/1999/xlink"
   xmlns:sodipodi="http://sodipodi.sourceforge.net/DTD/sodipodi-0.dtd"
   xmlns:inkscape="http://www.inkscape.org/namespaces/inkscape"
   width="744.09448819"
   height="1052.3622047"
   id="svg2"
   version="1.1"
   inkscape:version="0.48.3.1 r9886"
   sodipodi:docname="cavern.svg">
  <defs
     id="defs4">
    <linearGradient
       id="linearGradient3572">
      <stop
         style="stop-color:#000000;stop-opacity:1;"
         offset="0"
         id="stop3574" />
      <stop
         style="stop-color:#002255;stop-opacity:1;"
         offset="1"
         id="stop3576" />
    </linearGradient>
    <linearGradient
       inkscape:collect="always"
       id="linearGradient3552">
      <stop
         style="stop-color:#cccccc;stop-opacity:1;"
         offset="0"
         id="stop3554" />
      <stop
         style="stop-color:#808080;stop-opacity:1"
         offset="1"
         id="stop3556" />
    </linearGradient>
    <linearGradient
       id="linearGradient3471">
      <stop
         style="stop-color:#552200;stop-opacity:1;"
         offset="0"
         id="stop3473" />
      <stop
         style="stop-color:#3b1800;stop-opacity:1;"
         offset="1"
         id="stop3475" />
    </linearGradient>
    <linearGradient
       inkscape:collect="always"
       id="linearGradient3463">
      <stop
         style="stop-color:#2b1100;stop-opacity:1;"
         offset="0"
         id="stop3465" />
      <stop
         style="stop-color:#2b1100;stop-opacity:0;"
         offset="1"
         id="stop3467" />
    </linearGradient>
    <linearGradient
       inkscape:collect="always"
       id="linearGradient3447">
      <stop
         style="stop-color:#803300;stop-opacity:1;"
         offset="0"
         id="stop3449" />
      <stop
         style="stop-color:#803300;stop-opacity:0;"
         offset="1"
         id="stop3451" />
    </linearGradient>
    <linearGradient
       inkscape:collect="always"
       id="linearGradient3403">
      <stop
         style="stop-color:#803300;stop-opacity:1;"
         offset="0"
         id="stop3405" />
      <stop
         style="stop-color:#803300;stop-opacity:0;"
         offset="1"
         id="stop3407" />
    </linearGradient>
    <clipPath
       clipPathUnits="userSpaceOnUse"
       id="clipPath3186">
      <path
         sodipodi:type="arc"
         style="fill:#501616;stroke:#501616"
         id="path3188"
         sodipodi:cx="401.00629"
         sodipodi:cy="498.73676"
         sodipodi:rx="23.852343"
         sodipodi:ry="18.920467"
         d="m 424.85863,498.73676 a 23.852343,18.920467 0 1 1 -47.70469,0 23.852343,18.920467 0 1 1 47.70469,0 z"
         transform="translate(-132.22185,16.237771)" />
    </clipPath>
    <mask
       maskUnits="userSpaceOnUse"
       id="mask3229">
      <path
         sodipodi:type="arc"
         style="fill:#11002b;stroke:#11002b"
         id="path3231"
         sodipodi:cx="403.8309"
         sodipodi:cy="464.25848"
         sodipodi:rx="17.620245"
         sodipodi:ry="11.432983"
         d="m 421.45115,464.25848 a 17.620245,11.432983 0 1 1 -35.24049,0 17.620245,11.432983 0 1 1 35.24049,0 z"
         transform="matrix(2.2110959,0,0,2.4669135,-680.55828,-697.74604)" />
    </mask>
    <linearGradient
       inkscape:collect="always"
       xlink:href="#linearGradient3403"
       id="linearGradient3409"
       x1="323.47427"
       y1="134.01088"
       x2="332.41583"
       y2="368.06949"
       gradientUnits="userSpaceOnUse" />
    <linearGradient
       inkscape:collect="always"
       xlink:href="#linearGradient3447"
       id="linearGradient3453"
       x1="272.08466"
       y1="760.49506"
       x2="249.56311"
       y2="503.62769"
       gradientUnits="userSpaceOnUse" />
    <linearGradient
       inkscape:collect="always"
       xlink:href="#linearGradient3463"
       id="linearGradient3469"
       x1="233.50334"
       y1="471.78091"
       x2="225.08881"
       y2="379.19064"
       gradientUnits="userSpaceOnUse"
       gradientTransform="matrix(1,0,0,2.611904,0,-814.25726)" />
    <linearGradient
       inkscape:collect="always"
       xlink:href="#linearGradient3471"
       id="linearGradient3477"
       x1="526.43427"
       y1="537.49786"
       x2="628.46051"
       y2="469.65567"
       gradientUnits="userSpaceOnUse" />
    <linearGradient
       inkscape:collect="always"
       xlink:href="#linearGradient3552"
       id="linearGradient3558"
       x1="373.92087"
       y1="503.83972"
       x2="394.95721"
       y2="536.97192"
       gradientUnits="userSpaceOnUse" />
    <linearGradient
       inkscape:collect="always"
       xlink:href="#linearGradient3572"
       id="linearGradient3578"
       x1="505.92386"
       y1="569.05237"
       x2="351.8327"
       y2="560.11188"
       gradientUnits="userSpaceOnUse" />
  </defs>
  <sodipodi:namedview
     id="base"
     pagecolor="#ffffff"
     bordercolor="#666666"
     borderopacity="1.0"
     inkscape:pageopacity="0.0"
     inkscape:pageshadow="2"
     inkscape:zoom="1.5000052"
     inkscape:cx="376.3804"
     inkscape:cy="622.65427"
     inkscape:document-units="px"
     inkscape:current-layer="layer1"
     showgrid="false"
     showguides="true"
     inkscape:guide-bbox="true"
     inkscape:window-width="2560"
     inkscape:window-height="1598"
     inkscape:window-x="0"
     inkscape:window-y="31"
     inkscape:window-maximized="1" />
  <metadata
     id="metadata7">
    <rdf:RDF>
      <cc:Work
         rdf:about="">
        <dc:format>image/svg+xml</dc:format>
        <dc:type
           rdf:resource="http://purl.org/dc/dcmitype/StillImage" />
      </cc:Work>
    </rdf:RDF>
  </metadata>
  <g
     inkscape:label="Layer 1"
     inkscape:groupmode="layer"
     id="layer1">
    <rect
       style="fill:#000000;stroke:#803300"
       id="rect3115"
       width="838.95148"
       height="711.36902"
       x="-43.30072"
       y="86.60144" />
    <path
       style="fill:url(#linearGradient3469);fill-opacity:1;stroke:none"
       d="M -14.626835,327.51711 C 847.14777,-30.997937 761.54746,172.59914 743.94482,335.85073 l -0.79766,654.18856 -744.2138282,-6.25021 z"
       id="path3138"
       inkscape:connector-curvature="0"
       sodipodi:nodetypes="ccccc" />
    <path
       style="fill:url(#linearGradient3453);stroke:none;stroke-width:1px;stroke-linecap:butt;stroke-linejoin:miter;stroke-opacity:1;fill-opacity:1"
       d="M 2.3196815,637.91242 C 224.50421,678.82812 400.32035,610.57652 743.07131,632.49983 l 0.77323,148.45961 -742.2980857,3.09291 z"
       id="path3113"
       inkscape:connector-curvature="0"
       sodipodi:nodetypes="ccccc" />
    <path
       style="fill:url(#linearGradient3477);fill-opacity:1;stroke:none"
       d="M 536.61965,674.2541 C 442.04779,681.83852 355.13217,660.54412 395.11907,538.93935 m 0,0 c 0,-74.73228 81.13619,-85.05499 159.2848,-85.05499 78.14862,0 94.67463,16.1965 123.71636,85.05499 32.38442,76.78408 -48.77582,136.0336 -141.50058,135.31475"
       id="path3094"
       inkscape:connector-curvature="0"
       sodipodi:nodetypes="cccssc" />
    <path
       id="path3111"
       style="fill:url(#linearGradient3409);stroke:none;stroke-width:1.21414482999999995px;stroke-linecap:butt;stroke-linejoin:miter;stroke-opacity:1;fill-opacity:1"
       d="m 180.53083,98.639242 c 44.73301,35.602938 41.31731,59.152828 95.7903,142.983188 2.46923,-60.67235 -5.21,-143.38636 41.0089,-158.396061 z M 417.52752,85.81307 c 42.24768,41.02434 62.7115,73.51395 79.17972,152.80886 9.24655,-60.01444 10.87622,-143.06817 58.48501,-152.80886 z m -97.19024,0.236393 C 380.47424,141.68555 409.60321,185.74708 433.04471,293.28467 446.2066,211.89472 448.52633,99.259516 516.29449,86.049463 z m 12.92362,12.923616 c 36.30603,32.383571 53.89184,58.030051 68.044,120.623441 7.94613,-47.37388 9.3466,-112.93439 50.25976,-120.623441 z m -26.28972,-6.959045 c 36.30603,32.383576 53.89184,58.030056 68.044,120.623446 7.94613,-47.37388 9.3466,-112.934397 50.25976,-120.623446 z m 47.16686,-6.185817 c 36.30603,32.383573 53.89184,58.030053 68.044,120.623443 7.94613,-47.37388 9.3466,-112.934394 50.25976,-120.623443 z M 249.75237,86.601444 C 285.5793,131.19391 301.90092,205.69351 306.97119,228.10202 314.91732,180.72814 327.14297,94.290493 368.05613,86.601444 z M 240.84375,85.65625 -20.375,87.15625 -26.28125,316.5 c 0,0 16.239914,61.94682 218.375,-172.8125 8.91085,16.9975 15.84142,37.44043 22.09375,65.09375 7.94613,-47.37388 9.33684,-112.935951 50.25,-120.625 l -25.65625,0 c 0.69424,-0.844051 1.36464,-1.650052 2.0625,-2.5 z" />
    <path
       style="fill:#803300;stroke:#803300;stroke-width:1px;stroke-linecap:butt;stroke-linejoin:miter;stroke-opacity:1"
       d="M 679.60362,84.804444 C 664.96654,100.98841 796.02808,272.20904 796.06152,272.2538 L 794.46621,83.20913 z"
       id="path3140"
       inkscape:connector-curvature="0"
       sodipodi:nodetypes="cccc" />
    <path
       style="fill:url(#linearGradient3578);fill-opacity:1;stroke:none"
       d="m 389.40651,566.64877 c 14.02509,24.42861 -8.87718,53.90629 -16.46022,49.51317 -5.98553,-3.46763 13.44525,-44.03462 -4.90094,-57.43155 -23.9747,-17.50704 -4.17192,-42.09386 4.90094,-41.59478 6.75745,0.37171 2.07616,24.4593 16.46022,49.51316 z"
       id="path3125"
       inkscape:connector-curvature="0"
       sodipodi:nodetypes="sssss" />
    <path
       style="fill:#501616;stroke:#501616;stroke-width:0.36699098"
       d="m 401.36284,506.84306 c -15.22193,19.03558 -24.09679,39.65753 -34.66675,37.61937 -10.56996,-2.03816 -10.95517,-17.18437 0.57723,-36.82422 13.06018,-22.24168 24.93714,-29.91841 31.94391,-32.89878 7.00677,-2.98037 10.14044,-7.84504 2.72284,-4.72058 -8.22833,3.46594 17.66674,14.00945 -0.57723,36.82421 z"
       id="path3117"
       inkscape:connector-curvature="0"
       sodipodi:nodetypes="ssssss" />
    <path
       style="fill:#d38d5f;stroke:#d38d5f"
       d="m 252.74955,461.7579 c 0,20.07096 -17.29647,25.51906 -29.76925,36.34168 -12.97819,11.26117 -20.50985,-14.30297 -20.50985,-34.37393 0,-20.07095 13.76907,-32.40616 30.21017,-32.40616 16.4411,0 20.06893,10.36746 20.06893,30.43841 z"
       id="path3119"
       inkscape:connector-curvature="0"
       sodipodi:nodetypes="sssss"
       transform="matrix(0.45226441,0,0,0.40536484,307.79229,282.84171)"
       mask="url(#mask3229)" />
    <path
       style="fill:#d38d5f;stroke:#c87137;stroke-width:0.94259316000000004"
       d="m 460.17512,497.51215 c 1.42734,4.96269 -5.74326,11.22341 -27.09534,11.22341 -21.35208,0 -33.62599,-2.52801 -38.66136,-5.02225 -13.2358,-6.55628 -19.38666,-26.50288 22.50881,-9.09731 17.27395,7.17651 41.81139,-2.09838 43.24789,2.89615 z"
       id="path3121-2"
       inkscape:connector-curvature="0"
       sodipodi:nodetypes="sssss" />
    <path
       transform="translate(132.22185,-16.237771)"
       style="fill:#501616;stroke:#501616"
       d="m 326.33426,513.16234 c 1.42734,5.58558 -5.74326,12.63212 -27.09534,12.63212 -21.35208,0 -33.62599,-2.84531 -38.66136,-5.65262 -13.2358,-7.37919 -19.38666,-29.8294 22.50881,-10.23916 17.27395,8.07727 41.81139,-2.36176 43.24789,3.25966 z"
       id="path3121"
       inkscape:connector-curvature="0"
       sodipodi:nodetypes="sssss"
       clip-path="url(#clipPath3186)" />
    <path
       sodipodi:type="arc"
       style="fill:#502d16;stroke:#784421"
       id="path3123"
       sodipodi:cx="209.93118"
       sodipodi:cy="659.56281"
       sodipodi:rx="23.583429"
       sodipodi:ry="59.538494"
       d="m 233.51461,659.56281 a 23.583429,59.538494 0 1 1 -47.16686,0 23.583429,59.538494 0 1 1 47.16686,0 z"
       transform="matrix(0.07764061,-0.16293856,0.18717145,0.06758856,243.55457,608.76922)" />
    <path
       style="fill:#d38d5f;stroke:#c87137;stroke-width:1.47998165999999998"
       d="m 453.47281,501.34687 c -5.60539,1.53718 9.25302,-17.30046 4.67392,-8.84912 -1.34495,2.48228 3.21971,0.0885 6.31154,3.22791 1.80938,1.83721 -4.77046,6.58714 -8.67349,7.88556"
       id="path3127"
       inkscape:connector-curvature="0"
       sodipodi:nodetypes="cssc" />
    <path
       style="fill:#d38d5f;stroke:#d38d5f;stroke-width:0.42817298"
       d="m 422.32944,470.34907 c 0,8.13606 -7.82258,10.34453 -13.46357,14.73164 -5.86957,4.56488 -9.27588,-5.79792 -9.27588,-13.93398 0,-8.13606 6.22726,-13.13632 13.66299,-13.13632 7.43572,0 9.07646,4.20261 9.07646,12.33866 z"
       id="path3119-8"
       inkscape:connector-curvature="0"
       sodipodi:nodetypes="sssss" />
    <path
       style="fill:#373748;stroke:#11002b;stroke-width:0.09595391"
       d="m 403.26276,478.31762 c -0.4904,-0.022 -0.67252,-0.0705 -0.74894,-0.1999 -1.10512,-1.87113 -1.25208,-2.16327 -1.12807,-2.24238 0.0715,-0.0456 0.55385,-0.35221 1.07199,-0.68139 2.3672,-1.50393 4.17042,-3.38036 4.17042,-4.33973 0,-0.34191 -0.28321,-0.62722 -0.70877,-0.71399 -1.10074,-0.22446 -4.56296,1.1206 -5.30471,2.06085 -0.59607,0.75561 -0.66251,1.71816 -0.20307,2.94183 0.12276,0.32698 0.21414,0.60323 0.20305,0.61388 -0.0111,0.0111 -0.2953,0.15407 -0.63159,0.31869 l -0.61144,0.2993 -0.0589,-0.36345 c -0.1308,-0.80745 -0.1739,-4.69822 -0.0624,-5.62772 0.19915,-1.65939 0.75686,-3.72331 1.34833,-4.98978 0.81053,-1.73551 2.72595,-4.095 4.18707,-5.15774 2.52135,-1.83391 5.34771,-2.72397 8.65899,-2.72686 2.27525,-0.002 3.74046,0.31474 5.2046,1.12502 0.56791,0.3143 0.92756,0.61576 1.56801,1.31438 1.10741,1.20799 1.63952,2.29858 2.12008,4.34525 0.27082,1.15343 0.27533,1.39738 0.0473,2.55833 -1.01438,5.16466 -5.95731,9.33023 -12.91755,10.88609 -1.87129,0.4183 -4.43973,0.65812 -6.2045,0.57932 l 0,0 z"
       id="path3235"
       inkscape:connector-curvature="0" />
    <g
       id="g3212"
       transform="matrix(1.1540447,0,0,1.2885796,-63.205001,-131.66077)">
      <path
         transform="matrix(1.1022775,-0.22281116,0.38118041,1.885752,-213.90357,-321.14536)"
         d="m 418.67137,463.89978 c 0,1.70857 -5.92166,3.09363 -13.22639,3.09363 -7.30474,0 -13.2264,-1.38506 -13.2264,-3.09363 0,-1.70856 5.92166,-3.09363 13.2264,-3.09363 7.30473,0 13.22639,1.38507 13.22639,3.09363 z"
         sodipodi:ry="3.0936308"
         sodipodi:rx="13.226393"
         sodipodi:cy="463.89978"
         sodipodi:cx="405.44498"
         id="path3204"
         style="fill:#11002b;stroke:#11002b"
         sodipodi:type="arc" />
      <path
         transform="matrix(0.98328208,-0.15233113,0.13468712,0.86939177,-57.073304,126.03883)"
         d="m 423.06523,456.18814 c 0,4.38284 -5.15887,7.93584 -11.52266,7.93584 -6.36378,0 -11.52265,-3.553 -11.52265,-7.93584 0,-4.38284 5.15887,-7.93583 11.52265,-7.93583 6.36379,0 11.52266,3.55299 11.52266,7.93583 z"
         sodipodi:ry="7.9358358"
         sodipodi:rx="11.522654"
         sodipodi:cy="456.18814"
         sodipodi:cx="411.54257"
         id="path3206"
         style="fill:#220055;stroke:#220055"
         sodipodi:type="arc" />
    </g>
    <path
       style="fill:url(#linearGradient3558);stroke:none;fill-opacity:1"
       d="m 363.91786,543.07997 c -1.28277,-0.72649 -2.61519,-2.10678 -3.4184,-3.54123 -1.18138,-2.10981 -1.30786,-2.88961 -1.23429,-7.60977 0.067,-4.30104 0.37232,-6.13532 1.67583,-10.06904 3.81389,-11.5096 12.22787,-24.83612 22.14883,-35.08054 4.58037,-4.72971 11.72933,-10.17837 14.49211,-11.04532 1.23819,-0.38855 2.02949,0.62632 2.61858,3.35836 0.89449,4.14846 3.33495,7.34546 5.60722,7.34546 1.18229,0 1.53951,0.28782 1.79501,1.44625 0.17544,0.79543 0.36059,1.63318 0.41144,1.86165 0.13809,0.62036 9.06022,4.466 12.69026,5.46979 1.74101,0.48143 3.35077,1.12916 3.57724,1.43938 0.515,0.70547 -0.0435,5.7836 -0.83735,7.61268 -0.32603,0.75125 -1.17973,2.27678 -1.89711,3.39008 l -1.30432,2.02416 -3.97149,-0.34726 c -2.18431,-0.19099 -6.15802,-0.68771 -8.83047,-1.10383 -2.67244,-0.41611 -5.28616,-0.75657 -5.80826,-0.75657 -1.03465,0 -3.30467,2.95363 -14.03129,18.25671 -11.8143,16.85483 -17.37008,20.92464 -23.68354,17.34904 z"
       id="path3550"
       inkscape:connector-curvature="0" />
  </g>
</svg>
